<?xml version="1.0" standalone="no"?>
<!DOCTYPE svg PUBLIC "-//W3C//DTD SVG 20010904//EN"
 "http://www.w3.org/TR/2001/REC-SVG-20010904/DTD/svg10.dtd">
<svg version="1.0" xmlns="http://www.w3.org/2000/svg"
 width="200.000000pt" height="70.000000pt" viewBox="0 0 561.000000 46.000000"
 preserveAspectRatio="xMidYMid meet">

<g transform="translate(0.000000,46.000000) scale(0.100000,-0.100000)"
fill="#000000" stroke="none">
<path d="M129 397 c-117 -61 -136 -280 -29 -334 60 -31 162 2 201 63 l19 31
-31 7 c-25 5 -36 1 -61 -24 -60 -60 -128 -29 -128 60 0 96 45 160 113 160 25
0 57 -27 57 -48 0 -13 38 -16 57 -4 19 12 -11 69 -49 92 -43 26 -95 25 -149
-3z"/>
<path d="M416 393 c-2 -10 -16 -79 -31 -153 -14 -74 -28 -145 -31 -157 -4 -20
0 -23 29 -23 l34 0 13 76 c7 42 23 90 34 107 25 37 63 47 73 21 6 -15 -8 -123
-23 -182 -6 -20 -3 -22 28 -22 l35 0 18 100 c21 116 16 149 -29 165 -22 8 -36
5 -68 -12 -26 -15 -38 -18 -35 -9 3 7 9 34 12 60 l7 46 -30 0 c-21 0 -32 -6
-36 -17z"/>
<path d="M890 385 c0 -21 5 -25 29 -25 26 0 41 14 41 41 0 5 -16 9 -35 9 -31
0 -35 -3 -35 -25z"/>
<path d="M2036 393 c-2 -10 -16 -79 -31 -153 -14 -74 -28 -145 -31 -157 -4
-20 0 -23 29 -23 l34 0 13 76 c7 42 23 90 34 107 25 37 63 47 73 21 6 -15 -8
-123 -23 -182 -6 -20 -3 -22 28 -22 l35 0 18 100 c21 116 16 149 -29 165 -22
8 -36 5 -68 -12 -26 -15 -38 -18 -35 -9 3 7 9 34 12 60 l7 46 -30 0 c-21 0
-32 -6 -36 -17z"/>
<path d="M2920 407 c0 -5 -59 -297 -65 -324 -5 -21 -2 -23 29 -23 37 0 39 3
51 70 12 65 15 70 44 70 39 0 57 -17 86 -83 23 -54 27 -57 60 -57 19 0 35 3
35 6 0 3 -15 37 -34 75 l-34 69 23 6 c71 18 97 123 42 170 -26 22 -37 24 -133
24 -57 0 -104 -2 -104 -3z m190 -72 c31 -37 -19 -75 -100 -75 l-49 0 5 33 c3
17 7 38 10 45 5 18 118 16 134 -3z"/>
<path d="M3526 257 c-16 -83 -31 -162 -34 -174 -4 -20 0 -23 27 -23 25 0 31 4
31 22 0 21 0 21 21 2 31 -28 100 -26 133 5 54 51 66 172 20 217 -26 26 -61 29
-108 9 -15 -7 -17 -4 -13 11 3 10 8 34 12 52 6 31 6 32 -27 32 l-33 0 -29
-153z m148 7 c34 -34 7 -138 -38 -150 -39 -9 -56 11 -56 66 0 78 53 125 94 84z"/>
<path d="M3840 385 c0 -21 5 -25 29 -25 26 0 41 14 41 41 0 5 -16 9 -35 9 -31
0 -35 -3 -35 -25z"/>
<path d="M4400 407 c0 -5 -59 -297 -65 -324 -5 -21 -2 -23 29 -23 38 0 38 -1
56 93 l11 57 68 0 69 0 -14 -62 c-19 -88 -19 -88 20 -88 l34 0 31 162 c17 90
31 169 31 176 0 7 -13 12 -30 12 -34 0 -34 0 -50 -82 l-11 -58 -69 0 -68 0 8
38 c22 107 23 102 -15 102 -19 0 -35 -2 -35 -3z"/>
<path d="M5480 348 c-6 -34 -15 -57 -18 -51 -11 16 -49 33 -76 33 -61 0 -124
-101 -113 -182 10 -74 80 -111 135 -72 20 14 22 14 22 0 0 -11 9 -16 29 -16
l28 0 35 175 35 175 -32 0 c-32 0 -33 -1 -45 -62z m-46 -90 c31 -44 7 -132
-38 -144 -39 -9 -56 11 -56 66 0 81 58 129 94 78z"/>
<path d="M1316 355 c-20 -19 -40 -35 -45 -35 -9 0 -21 -23 -21 -41 0 -5 7 -9
15 -9 19 0 19 -3 -1 -86 -8 -37 -13 -78 -9 -91 10 -41 97 -46 103 -6 3 18 -2
23 -17 23 -23 0 -26 15 -12 70 5 19 12 47 15 63 4 18 13 27 26 27 11 0 20 4
20 9 0 5 3 16 6 25 4 12 0 16 -15 16 -20 0 -21 4 -15 35 4 22 2 35 -5 35 -5 0
-26 -16 -45 -35z"/>
<path d="M776 309 c-21 -17 -26 -18 -26 -5 0 23 -57 22 -64 -1 -3 -10 -12 -58
-21 -108 -9 -49 -19 -100 -22 -113 -5 -19 -1 -22 29 -22 l33 0 17 83 c18 86
46 127 88 127 18 0 40 27 40 49 0 18 -46 12 -74 -10z"/>
<path d="M1040 317 c-33 -17 -55 -57 -47 -89 5 -19 20 -31 59 -48 70 -30 81
-39 67 -56 -17 -21 -66 -17 -89 6 -16 16 -27 19 -52 12 l-31 -8 29 -33 c25
-28 39 -34 80 -38 80 -8 134 29 134 90 0 31 -23 51 -85 74 -29 11 -50 25 -50
33 0 21 51 25 79 6 16 -10 33 -13 52 -7 l29 7 -32 32 c-26 26 -39 32 -75 32
-24 0 -54 -6 -68 -13z"/>
<path d="M1484 320 c-55 -22 -93 -104 -80 -173 20 -104 175 -115 228 -16 21
39 24 106 6 144 -21 47 -96 69 -154 45z m90 -56 c54 -53 -34 -190 -91 -143
-21 18 -13 111 12 139 22 24 58 26 79 4z"/>
<path d="M1818 316 c-16 -8 -28 -11 -28 -5 0 5 -13 9 -30 9 -22 0 -31 -5 -35
-22 -13 -57 -55 -272 -55 -284 0 -9 11 -14 29 -14 31 0 33 4 46 68 6 31 8 32
20 15 10 -13 27 -18 60 -18 40 0 51 5 75 32 56 62 63 161 15 209 -27 27 -58
30 -97 10z m50 -48 c35 -35 -5 -158 -51 -158 -33 0 -47 19 -47 64 0 77 59 133
98 94z"/>
<path d="M2354 320 c-35 -14 -72 -68 -79 -113 -13 -82 38 -147 113 -147 30 0
92 36 99 56 6 19 -47 27 -66 9 -33 -29 -81 -13 -81 27 0 16 10 18 79 18 70 0
80 2 86 20 8 24 -2 80 -18 101 -27 36 -85 49 -133 29z m80 -62 c28 -39 21 -48
-39 -48 -47 0 -54 2 -48 18 18 52 61 67 87 30z"/>
<path d="M2666 309 c-21 -17 -26 -18 -26 -5 0 23 -57 22 -64 -1 -3 -10 -12
-58 -21 -108 -9 -49 -19 -100 -22 -113 -5 -19 -1 -22 29 -22 l33 0 17 83 c18
86 46 127 88 127 18 0 40 27 40 49 0 18 -46 12 -74 -10z"/>
<path d="M3294 320 c-55 -22 -93 -104 -80 -173 20 -104 175 -115 228 -16 21
39 24 106 6 144 -21 47 -96 69 -154 45z m90 -56 c54 -53 -34 -190 -91 -143
-21 18 -13 111 12 139 22 24 58 26 79 4z"/>
<path d="M4053 310 c-27 -16 -33 -17 -33 -5 0 10 -10 15 -30 15 -16 0 -30 -2
-30 -4 0 -2 -11 -58 -25 -126 -14 -68 -25 -124 -25 -126 0 -2 15 -4 34 -4 l33
0 13 76 c7 42 23 90 34 107 25 37 63 47 73 21 6 -15 -8 -123 -23 -181 -6 -21
-3 -23 28 -23 l34 0 17 88 c22 114 21 138 -3 162 -25 25 -56 25 -97 0z"/>
<path d="M4774 320 c-55 -22 -93 -104 -80 -173 20 -104 175 -115 228 -16 21
39 24 106 6 144 -21 47 -96 69 -154 45z m90 -56 c54 -53 -34 -190 -91 -143
-21 18 -13 111 12 139 22 24 58 26 79 4z"/>
<path d="M5064 320 c-55 -22 -93 -104 -80 -173 20 -104 175 -115 228 -16 21
39 24 106 6 144 -21 47 -96 69 -154 45z m90 -56 c54 -53 -34 -190 -91 -143
-21 18 -13 111 12 139 22 24 58 26 79 4z"/>
<path d="M875 298 c-11 -48 -45 -221 -45 -230 0 -5 14 -8 32 -6 32 3 32 4 49
88 10 47 20 104 24 128 6 42 6 42 -24 42 -24 0 -32 -5 -36 -22z"/>
<path d="M3825 298 c-11 -48 -45 -221 -45 -230 0 -5 14 -8 32 -6 32 3 32 4 49
88 10 47 20 104 24 128 6 42 6 42 -24 42 -24 0 -32 -5 -36 -22z"/>
</g>
</svg>
